Coordinates
version=1
nRows=53
nColumns=11
inDegrees=yes

Units are S.I. units (second, meters, Newtons, ...)
If the header above contains a line with 'inDegrees', this indicates whether rotational values are in degrees (yes) or radians (no).

endheader
time	pelvis_tilt	pelvis_tx	pelvis_ty	hip_flexion_l	hip_flexion_r	knee_angle_l	knee_angle_r	ankle_angle_l	ankle_angle_r	lumbar
     18.80000000	     19.39572329	     -0.07182248	      0.73396031	     54.71200700	     54.71200700	    -77.68027577	    -77.68027577	      3.67138020	      3.67138020	    -33.80097523
     18.81000000	     19.27644464	     -0.07176851	      0.73378322	     54.84736022	     54.84736022	    -77.65305813	    -77.65305813	      3.24083694	      3.24083694	    -33.74645269
     18.82000000	     19.25275865	     -0.07175004	      0.73377389	     54.87274957	     54.87274957	    -77.65241141	    -77.65241141	      3.24182397	      3.24182397	    -33.81613524
     18.83000000	     19.22612144	     -0.07173408	      0.73377896	     54.89607370	     54.89607370	    -77.64919742	    -77.64919742	      3.24304531	      3.24304531	    -33.88298313
     18.84000000	     19.19731398	     -0.07170607	      0.73377971	     54.92151794	     54.92151794	    -77.64412660	    -77.64412660	      3.24456435	      3.24456435	    -33.95523077
     18.85000000	     19.16646110	     -0.07167593	      0.73377795	     54.94840504	     54.94840504	    -77.63817007	    -77.63817007	      3.24626401	      3.24626401	    -34.03172788
     18.86000000	     19.13368400	     -0.07164292	      0.73377590	     54.97693772	     54.97693772	    -77.63165178	    -77.63165178	      3.24806649	      3.24806649	    -34.11286819
     18.87000000	     19.09895318	     -0.07160586	      0.73377375	     55.00728885	     55.00728885	    -77.62481016	    -77.62481016	      3.24988273	      3.24988273	    -34.19907654
     18.88000000	     19.06204365	     -0.07154963	      0.73376396	     55.03905718	     55.03905718	    -77.61793764	    -77.61793764	      3.25160780	      3.25160780	    -34.28985646
     18.89000000	     19.02303123	     -0.07150175	      0.73376010	     55.07357401	     55.07357401	    -77.61098869	    -77.61098869	      3.25316783	      3.25316783	    -34.38764251
     18.90000000	     18.98170472	     -0.07144732	      0.73375841	     55.11044126	     55.11044126	    -77.60407278	    -77.60407278	      3.25454094	      3.25454094	    -34.49192497
     18.91000000	     18.93780912	     -0.07138586	      0.73375833	     55.14969850	     55.14969850	    -77.59723935	    -77.59723935	      3.25574467	      3.25574467	    -34.60306043
     18.92000000	     18.89110412	     -0.07131696	      0.73376061	     55.19138701	     55.19138701	    -77.59043493	    -77.59043493	      3.25684320	      3.25684320	    -34.72132123
     18.93000000	     18.84131220	     -0.07124038	      0.73376597	     55.23554979	     55.23554979	    -77.58351222	    -77.58351222	      3.25793089	      3.25793089	    -34.84682775
     18.94000000	     18.78808667	     -0.07115658	      0.73377720	     55.28225309	     55.28225309	    -77.57580258	    -77.57580258	      3.25938599	      3.25938599	    -34.97959280
     18.95000000	     18.73110417	     -0.07106460	      0.73379034	     55.33159548	     55.33159548	    -77.56767081	    -77.56767081	      3.26098670	      3.26098670	    -35.11957460
     18.96000000	     18.66998864	     -0.07096462	      0.73380762	     55.38386320	     55.38386320	    -77.55867875	    -77.55867875	      3.26278756	      3.26278756	    -35.26665488
     18.97000000	     18.60425109	     -0.07085627	      0.73382928	     55.43936242	     55.43936242	    -77.54843097	    -77.54843097	      3.26481096	      3.26481096	    -35.42064915
     18.98000000	     18.53338844	     -0.07073825	      0.73385605	     55.49838023	     55.49838023	    -77.53658126	    -77.53658126	      3.26706014	      3.26706014	    -35.58126013
     18.99000000	     18.45693606	     -0.07060799	      0.73388904	     55.56110719	     55.56110719	    -77.52289268	    -77.52289268	      3.26953790	      3.26953790	    -35.74809772
     19.00000000	     18.37450009	     -0.07046243	      0.73392913	     55.62768507	     55.62768507	    -77.50726791	    -77.50726791	      3.27226565	      3.27226565	    -35.92084104
     19.01000000	     18.28574123	     -0.07029943	      0.73397611	     55.69835257	     55.69835257	    -77.48975318	    -77.48975318	      3.27529886	      3.27529886	    -36.09945303
     19.02000000	     18.19033409	     -0.07011881	      0.73402828	     55.77357421	     55.77357421	    -77.47050490	    -77.47050490	      3.27873147	      3.27873147	    -36.28427150
     19.03000000	     18.08792410	     -0.06992207	      0.73408258	     55.85406210	     55.85406210	    -77.44977604	    -77.44977604	      3.28268896	      3.28268896	    -36.47588529
     19.04000000	     17.97806797	     -0.06971160	      0.73413512	     55.94075607	     55.94075607	    -77.42787821	    -77.42787821	      3.28731690	      3.28731690	    -36.67492095
     19.05000000	     17.86016548	     -0.06948955	      0.73418166	     56.03475333	     56.03475333	    -77.40513776	    -77.40513776	      3.29277266	      3.29277266	    -36.88179919
     19.06000000	     17.48623247	     -0.06908578	      0.73361585	     56.44287211	     56.44287211	    -77.41903774	    -77.41903774	      3.30374032	      3.30374032	    -36.78495689
     19.07000000	     17.37130755	     -0.06883988	      0.73369302	     56.53202077	     56.53202077	    -77.40018584	    -77.40018584	      3.30898750	      3.30898750	    -37.02972520
     19.08000000	     17.24417185	     -0.06857586	      0.73374939	     56.63072422	     56.63072422	    -77.37790755	    -77.37790755	      3.31584483	      3.31584483	    -37.28080406
     19.09000000	     17.10533193	     -0.06828637	      0.73379769	     56.73932963	     56.73932963	    -77.35388494	    -77.35388494	      3.32439932	      3.32439932	    -37.53695249
     19.10000000	     16.95434744	     -0.06796488	      0.73383696	     56.85842434	     56.85842434	    -77.32910577	    -77.32910577	      3.33484860	      3.33484860	    -37.79766909
     19.11000000	     16.78893715	     -0.06759068	      0.73385808	     56.98927970	     56.98927970	    -77.30429394	    -77.30429394	      3.34772499	      3.34772499	    -38.05929658
     19.12000000	     16.23707004	     -0.06693550	      0.73294909	     57.60179063	     57.60179063	    -77.35278007	    -77.35278007	      3.44889765	      3.44889765	    -37.84604651
     19.13000000	     16.08306306	     -0.06651153	      0.73303686	     57.71483248	     57.71483248	    -77.33036787	    -77.33036787	      3.45700750	      3.45700750	    -38.15983043
     19.14000000	     15.91428354	     -0.06605293	      0.73310988	     57.83938474	     57.83938474	    -77.30481027	    -77.30481027	      3.46801326	      3.46801326	    -38.47706714
     19.15000000	     15.73085655	     -0.06556177	      0.73316985	     57.97675655	     57.97675655	    -77.27745802	    -77.27745802	      3.48209519	      3.48209519	    -38.79811513
     19.16000000	     15.20604938	     -0.06482059	      0.73240755	     58.53331601	     58.53331601	    -77.30889625	    -77.30889625	      3.61119596	      3.61119596	    -38.70186830
     19.17000000	     15.02285231	     -0.06426841	      0.73250360	     58.66403519	     58.66403519	    -77.28330678	    -77.28330678	      3.62154444	      3.62154444	    -39.06227451
     19.18000000	     14.82234942	     -0.06368749	      0.73258801	     58.80933354	     58.80933354	    -77.25313005	    -77.25313005	      3.63574500	      3.63574500	    -39.42370528
     19.19000000	     14.60163916	     -0.06304948	      0.73265158	     58.97156930	     58.97156930	    -77.21984968	    -77.21984968	      3.65464506	      3.65464506	    -39.78059219
     19.20000000	     13.98368180	     -0.06217830	      0.73174427	     59.62446149	     59.62446149	    -77.25340991	    -77.25340991	      3.81145169	      3.81145169	    -39.65561158
     19.21000000	     13.77147534	     -0.06148337	      0.73187294	     59.77057308	     59.77057308	    -77.22325972	    -77.22325972	      3.82304031	      3.82304031	    -40.06294639
     19.22000000	     13.53958965	     -0.06075106	      0.73199966	     59.93173764	     59.93173764	    -77.18596520	    -77.18596520	      3.83876657	      3.83876657	    -40.46885785
     19.23000000	     13.28373209	     -0.05995330	      0.73211241	     60.11137316	     60.11137316	    -77.14268690	    -77.14268690	      3.85978186	      3.85978186	    -40.86579082
     19.24000000	     12.57317651	     -0.05891150	      0.73113009	     60.84415248	     60.84415248	    -77.15852610	    -77.15852610	      4.02553444	      4.02553444	    -40.71253192
     19.25000000	     12.33120297	     -0.05806144	      0.73132153	     61.00588951	     61.00588951	    -77.12537872	    -77.12537872	      4.03782760	      4.03782760	    -41.16949494
     19.26000000	     12.06153531	     -0.05715313	      0.73150641	     61.18586570	     61.18586570	    -77.07834219	    -77.07834219	      4.05563963	      4.05563963	    -41.61528478
     19.27000000	     11.76506391	     -0.05618641	      0.73167907	     61.38623967	     61.38623967	    -77.02383379	    -77.02383379	      4.07873617	      4.07873617	    -42.04994783
     19.28000000	     10.84135162	     -0.05496762	      0.73032939	     62.35174987	     62.35174987	    -77.04331389	    -77.04331389	      4.27142571	      4.27142571	    -41.71998462
     19.29000000	     10.57123323	     -0.05392297	      0.73059735	     62.52104567	     62.52104567	    -77.00589223	    -77.00589223	      4.28249069	      4.28249069	    -42.23315788
     19.30000000	     10.26651069	     -0.05284404	      0.73086129	     62.71313270	     62.71313270	    -76.94759955	    -76.94759955	      4.30000196	      4.30000196	    -42.72620977
     19.31000000	      9.46530360	     -0.05160392	      0.72997111	     63.48987676	     63.48987676	    -76.90879307	    -76.90879307	      4.41521785	      4.41521785	    -42.63083476
     19.32000000	      9.15874183	     -0.05044259	      0.73026935	     63.68267769	     63.68267769	    -76.86746998	    -76.86746998	      4.42933669	      4.42933669	    -43.16374323
